<svg xmlns="http://www.w3.org/2000/svg" viewBox="0 0 698 514"><defs><style>.cls-1{fill:#b3b3b3;}.cls-2{fill:#1a1a1a;}</style></defs><g id="Layer_2" data-name="Layer 2"><g id="Layer_1-2" data-name="Layer 1"><path class="cls-1" d="M345.81,0,126.6,129.06V385.89L345.81,514,571.4,386V128.91Zm.26,40.41L518.59,139,346.07,236.85,178.62,139ZM161.56,169.5l166.9,97.55V463.38l-166.9-97.55ZM536.44,365.68l-173,98.15V267.2l173-98.15Z"/><path class="cls-2" d="M126.6,139.05V298.52A17.48,17.48,0,0,0,144.08,316h0a17.48,17.48,0,0,0,17.48-17.48V200a17.47,17.47,0,0,1,26.29-15.09l132,77.12a17.47,17.47,0,0,1,8.65,15.09v21.44A17.48,17.48,0,0,0,345.94,316h0a17.48,17.48,0,0,0,17.48-17.48V277.38a17.47,17.47,0,0,1,8.85-15.2l138.07-78.32a17.48,17.48,0,0,1,26.1,15.2v99.46A17.48,17.48,0,0,0,553.92,316h0a17.48,17.48,0,0,0,17.48-17.48V139.05a17.49,17.49,0,0,0-8.81-15.18L354.61,5a17.48,17.48,0,0,0-17.54.11L135.21,124A17.49,17.49,0,0,0,126.6,139.05Zm365.29,15.09L354.82,231.89a17.47,17.47,0,0,1-17.44-.12L204.35,154a17.48,17.48,0,0,1,0-30.15l133-78.33a17.46,17.46,0,0,1,17.53-.11l137.07,78.32A17.48,17.48,0,0,1,491.89,154.14Z"/><rect class="cls-2" y="296" width="698" height="40" rx="20"/></g></g></svg>