<svg xmlns="http://www.w3.org/2000/svg" viewBox="0 0 830.51 226.44"><defs><style>.cls-1{fill:#1a1a1a;}</style></defs><g id="Layer_2" data-name="Layer 2"><g id="Layer_1-2" data-name="Layer 1"><path class="cls-1" d="M0,81.21v-80H29.47q16.35,0,26.25,11.57t9.91,28.57q0,17-10.2,28.42T26.25,81.21ZM14.82,69.43h12a21.54,21.54,0,0,0,16.4-7.26Q50,54.91,50,40.55q0-11.73-5.89-19.84A18.31,18.31,0,0,0,28.54,12.6H14.82Z"/><path class="cls-1" d="M161,81.21H109v-80h51.45v11.9h-37V34.8h29.76V46.41H123.4V68.79H161Z"/><path class="cls-1" d="M195,61.93l14-3q2.52,11.89,19.34,11.89,7.68,0,11.81-3a9.11,9.11,0,0,0,4.13-7.56,10.65,10.65,0,0,0-1.88-6.06q-1.87-2.78-8-4.37l-15.3-4q-7.85-2.05-11.6-4.66a18.33,18.33,0,0,1-6-7.35,23.38,23.38,0,0,1-2.25-10.14,21.06,21.06,0,0,1,8-17.2Q215.16,0,227.58,0A37.3,37.3,0,0,1,246,4.51a20.35,20.35,0,0,1,10.34,12.78l-13.71,3.39q-3.16-9.07-14.77-9.08-6.74,0-10.28,2.81A8.74,8.74,0,0,0,214,21.56q0,6.86,11.14,9.61l13.59,3.4q12.36,3.1,16.58,9.17a23,23,0,0,1,4.22,13.39q0,11.77-8.88,18.54t-23,6.77a42,42,0,0,1-20.83-5A24.43,24.43,0,0,1,195,61.93Z"/><path class="cls-1" d="M316.35,81.21H301.93v-80h14.42Z"/><path class="cls-1" d="M424.63,40.31v40.9h-6.39l-4.39-10.78q-7,12-21.62,12-16.35,0-24.41-12.42t-8.05-28.77q0-17.28,9-29.27T393.93,0Q406,0,413.79,7a30.86,30.86,0,0,1,9.84,17.43l-12.54,2.23Q407.58,12,394.28,12a16.75,16.75,0,0,0-13.86,6.92q-5.35,6.91-5.36,21.27,0,30.28,19,30.29a16.12,16.12,0,0,0,12.22-5.1q4.83-5.1,4.83-13.48H394.57V40.31Z"/><path class="cls-1" d="M531.39,81.21h-14L487,30.12l-2.28-3.81c-.47-.78-1.2-2-2.17-3.69V81.21H471v-80h15.93l28,47.11q.36.58,5.1,8.61V1.23h11.37Z"/><path class="cls-1" d="M630.94,81.21H579v-80h51.45v11.9h-37V34.8h29.76V46.41H593.38V68.79h37.56Z"/><path class="cls-1" d="M725.33,81.21h-52v-80H724.8v11.9h-37V34.8h29.77V46.41H687.77V68.79h37.56Z"/><path class="cls-1" d="M830.1,81.21H814.86L802.44,48.34H782.17V81.21H767.75v-80h34.69q14.47,0,21.27,6.53t6.8,16.91q0,15.4-14.42,21.21ZM782.17,36.8H800.1q7.78,0,11.6-3.28a11.3,11.3,0,0,0,3.81-9A10.73,10.73,0,0,0,811.76,16q-3.75-3.26-10.49-3.26h-19.1Z"/><path class="cls-1" d="M49.22,225.21H0v-80H15.18v66.91h34Z"/><path class="cls-1" d="M152.58,225.21H137.17l-6.39-19H100l-6.27,19H81.45l26.54-80h17.75Zm-25.67-30.58-11.66-35.69-11.66,35.69Z"/><path class="cls-1" d="M192.19,225.21v-80h31.17a44.52,44.52,0,0,1,13.12,1.64,17.77,17.77,0,0,1,9,6.86A20.18,20.18,0,0,1,249.32,166a18,18,0,0,1-3.87,11.52,17.38,17.38,0,0,1-10.66,6.24q8.43,1.46,12.77,6.85a19.77,19.77,0,0,1,4.33,12.78,21.56,21.56,0,0,1-6.06,15.55q-6.06,6.3-18.66,6.3Zm13.65-46.41h17.58a10.92,10.92,0,0,0,11.66-11.42q0-5.5-3.58-8.12a13.86,13.86,0,0,0-8.37-2.6H205.84Zm0,34.4h18.63q5.92,0,9.35-3.11a11.73,11.73,0,0,0-.06-16.64,13.09,13.09,0,0,0-9.23-3.22H205.84Z"/><path class="cls-1" d="M286.7,205.93l14-3q2.52,11.9,19.34,11.89,7.68,0,11.81-3.05a9.11,9.11,0,0,0,4.13-7.56,10.65,10.65,0,0,0-1.88-6.06q-1.87-2.78-8-4.37l-15.29-4q-7.84-2.06-11.6-4.66a18.33,18.33,0,0,1-6-7.35,23.38,23.38,0,0,1-2.25-10.14q0-10.72,8-17.2T319.28,144a37.3,37.3,0,0,1,18.43,4.51,20.35,20.35,0,0,1,10.34,12.78l-13.71,3.39q-3.16-9.08-14.77-9.08-6.74,0-10.28,2.81a8.74,8.74,0,0,0-3.55,7.15q0,6.85,11.14,9.61l13.59,3.4q12.36,3.1,16.58,9.17a23,23,0,0,1,4.22,13.39q0,11.77-8.88,18.54t-23,6.77a42.1,42.1,0,0,1-20.83-5A24.45,24.45,0,0,1,286.7,205.93Z"/></g></g></svg>